# xmcd
#
# Track frame offsets:
#	150
#	15108
#	28077
#	46557
#	54593
#	67509
#	79136
#	91184
#	111389
#	122315
#	131795
#	144970
#	156511
#	169984
#	182219
#	191544
#	203034
#	218779
#	226760
#	237737
#	248714
#
# Disc length: 3463
#
# Revision: 3
# Processed by: cddbd v1.5.1PL0 Copyright (c) Steve Scherf et al.
# Submitted via: cdripper 1.0.1
# Normalized: r1:TDELIM( - ),TSWAP
#
DISCID=130d8515
DTITLE=Country and Western - Alltime Country Hits - CD1
DYEAR=2001
DGENRE=Country
TTITLE0=Olivia Newton John - Take Me Home Country Roads
TTITLE1=Charly Rich - The Most Beautiful Girl
TTITLE2=Nitty Gritty Dirt - Mr Bojangles
TTITLE3=Johny Cash - Hey Good Looking
TTITLE4=Lynn Anderson - Top Of The World
TTITLE5=Frankie Lane - Mule Train
TTITLE6=Billy Joe Spears - Look What They've Done With My Song
TTITLE7=Emmylou Harris - Love Hurts
TTITLE8=Dolly Parton - Honky Tonk Angels
TTITLE9=Mickey Gilley - Fraulein
TTITLE10=Johny Lee - Blueberry Hill
TTITLE11=Mickey Gilley - Breathless
TTITLE12=Freddy Fender - In The Still Of The Night
TTITLE13=Don Williams - Some Broken Hearts Never Mend
TTITLE14=Gail Davies - Singin' The Blues
TTITLE15=Carl Perkins - Whole Lotta Shakin' Goin On
TTITLE16=Boxcar Willie - Red River
TTITLE17=Tammy Wynette - When The Grass Grows Over Me
TTITLE18=Patsy Cline - Stop The World
TTITLE19=Tammy Wynette - DIVORCE
TTITLE20=Waylon Jennings - Dream Baby
EXTD=YEAR: 2001
EXTT0=
EXTT1=
EXTT2=
EXTT3=
EXTT4=
EXTT5=
EXTT6=
EXTT7=
EXTT8=
EXTT9=
EXTT10=
EXTT11=
EXTT12=
EXTT13=
EXTT14=
EXTT15=
EXTT16=
EXTT17=
EXTT18=
EXTT19=
EXTT20=
PLAYORDER=
